<?xml version="1.0" encoding="utf-8"?>
<!-- Generator: Adobe Illustrator 25.2.3, SVG Export Plug-In . SVG Version: 6.00 Build 0)  -->
<svg version="1.1" id="Layer_1" xmlns="http://www.w3.org/2000/svg" xmlns:xlink="http://www.w3.org/1999/xlink" x="0px" y="0px"
	 viewBox="0 0 230.03 149.37" style="enable-background:new 0 0 230.03 149.37;" xml:space="preserve">
<style type="text/css">
	.st0{fill:#C3DFC3;}
	.st1{opacity:0.34;}
	.st2{fill:#9EC59E;}
	.st3{opacity:0.29;fill:#9EC59E;}
	.st4{opacity:0.34;fill:#9EC59E;}
	.st5{fill:#568382;}
	.st6{stroke:#000000;stroke-miterlimit:10;}
	.st7{fill:url(#SVGID_1_);}
	.st8{fill:url(#SVGID_2_);}
	.st9{fill:url(#SVGID_3_);}
	.st10{fill:url(#SVGID_4_);}
	.st11{opacity:0.29;fill:#C3DFC3;}
</style>
<rect x="183.53" y="137.68" transform="matrix(1 -5.766067e-03 5.766067e-03 1 -0.7985 1.0894)" class="st0" width="10" height="2.67"/>
<g class="st1">
	
		<rect x="98.33" y="82.75" transform="matrix(1 -5.766067e-03 5.766067e-03 1 -0.6104 0.603)" class="st2" width="11.87" height="46.83"/>
	
		<rect x="100.17" y="79.39" transform="matrix(1 -5.766067e-03 5.766067e-03 1 -0.5128 0.6021)" class="st2" width="7.99" height="19.68"/>
	
		<rect x="101.91" y="77.26" transform="matrix(1 -5.766067e-03 5.766067e-03 1 -0.4752 0.6018)" class="st2" width="4.43" height="10.92"/>
	<polygon class="st2" points="105.64,82.86 102.62,82.88 102.57,75.44 103.66,75.44 104.74,75.43 105.59,75.43 	"/>
	<g>
		<polygon class="st2" points="103.91,79.63 103.58,79.64 103.54,72.2 103.66,72.2 103.77,72.2 103.87,72.2 		"/>
		<polygon class="st2" points="104.62,77.06 104.29,77.06 104.25,69.62 104.37,69.62 104.48,69.62 104.58,69.62 		"/>
	</g>
	
		<rect x="97.88" y="82.63" transform="matrix(1 -5.766067e-03 5.766067e-03 1 -0.4762 0.6018)" class="st2" width="12.5" height="0.5"/>
	
		<rect x="99.82" y="79.15" transform="matrix(1 -5.766067e-03 5.766067e-03 1 -0.4561 0.6016)" class="st2" width="8.57" height="0.48"/>
	
		<rect x="101.56" y="77.06" transform="matrix(1 -5.766067e-03 5.766067e-03 1 -0.4437 0.6011)" class="st2" width="4.94" height="0.37"/>
	
		<rect x="100.86" y="80.21" transform="matrix(1 -5.766067e-03 5.766067e-03 1 -0.4668 0.584)" class="st3" width="0.37" height="2.06"/>
	
		<rect x="101.89" y="80.2" transform="matrix(1 -5.766067e-03 5.766067e-03 1 -0.4667 0.5899)" class="st3" width="0.37" height="2.06"/>
	
		<rect x="102.91" y="80.2" transform="matrix(1 -5.766067e-03 5.766067e-03 1 -0.4667 0.5958)" class="st3" width="0.37" height="2.06"/>
	
		<rect x="103.94" y="80.19" transform="matrix(1 -5.766067e-03 5.766067e-03 1 -0.4666 0.6018)" class="st3" width="0.37" height="2.06"/>
	
		<rect x="104.97" y="80.19" transform="matrix(1 -5.766067e-03 5.766067e-03 1 -0.4666 0.6077)" class="st3" width="0.37" height="2.06"/>
	
		<rect x="106" y="80.18" transform="matrix(1 -5.766067e-03 5.766067e-03 1 -0.4665 0.6136)" class="st3" width="0.37" height="2.06"/>
	
		<rect x="107.02" y="80.17" transform="matrix(1 -5.766067e-03 5.766067e-03 1 -0.4665 0.6195)" class="st3" width="0.37" height="2.06"/>
	
		<rect x="99.25" y="84.64" transform="matrix(1 -5.766067e-03 5.766067e-03 1 -0.4935 0.5763)" class="st2" width="0.9" height="2.45"/>
	
		<rect x="101.03" y="84.63" transform="matrix(1 -5.766067e-03 5.766067e-03 1 -0.4934 0.5866)" class="st3" width="0.9" height="2.45"/>
	
		<rect x="102.81" y="84.62" transform="matrix(1 -5.766067e-03 5.766067e-03 1 -0.4933 0.5968)" class="st2" width="0.9" height="2.45"/>
	
		<rect x="104.59" y="84.61" transform="matrix(1 -5.766067e-03 5.766067e-03 1 -0.4932 0.6071)" class="st2" width="0.9" height="2.45"/>
	
		<rect x="106.36" y="84.6" transform="matrix(1 -5.766067e-03 5.766067e-03 1 -0.4931 0.6173)" class="st2" width="0.9" height="2.45"/>
	
		<rect x="108.14" y="84.59" transform="matrix(1 -5.766067e-03 5.766067e-03 1 -0.493 0.6276)" class="st2" width="0.9" height="2.45"/>
	
		<rect x="99.27" y="88.46" transform="matrix(1 -5.766067e-03 5.766067e-03 1 -0.5154 0.5765)" class="st2" width="0.9" height="2.45"/>
	
		<rect x="101.05" y="88.45" transform="matrix(1 -5.766067e-03 5.766067e-03 1 -0.5154 0.5868)" class="st2" width="0.9" height="2.45"/>
	
		<rect x="102.83" y="88.44" transform="matrix(1 -5.766067e-03 5.766067e-03 1 -0.5153 0.597)" class="st2" width="0.9" height="2.45"/>
	
		<rect x="104.61" y="88.43" transform="matrix(1 -5.766067e-03 5.766067e-03 1 -0.5152 0.6073)" class="st3" width="0.9" height="2.45"/>
	
		<rect x="106.39" y="88.42" transform="matrix(1 -5.766067e-03 5.766067e-03 1 -0.5151 0.6175)" class="st2" width="0.9" height="2.45"/>
	
		<rect x="108.16" y="88.41" transform="matrix(1 -5.766067e-03 5.766067e-03 1 -0.515 0.6278)" class="st2" width="0.9" height="2.45"/>
	
		<rect x="99.3" y="92.27" transform="matrix(1 -5.766067e-03 5.766067e-03 1 -0.5374 0.5767)" class="st2" width="0.9" height="2.45"/>
	
		<rect x="101.07" y="92.26" transform="matrix(1 -5.766067e-03 5.766067e-03 1 -0.5373 0.5869)" class="st2" width="0.9" height="2.45"/>
	
		<rect x="102.85" y="92.25" transform="matrix(1 -5.766067e-03 5.766067e-03 1 -0.5373 0.5972)" class="st2" width="0.9" height="2.45"/>
	
		<rect x="104.63" y="92.24" transform="matrix(1 -5.766067e-03 5.766067e-03 1 -0.5372 0.6074)" class="st2" width="0.9" height="2.45"/>
	
		<rect x="106.41" y="92.23" transform="matrix(1 -5.766067e-03 5.766067e-03 1 -0.5371 0.6177)" class="st3" width="0.9" height="2.45"/>
	
		<rect x="108.19" y="92.22" transform="matrix(1 -5.766067e-03 5.766067e-03 1 -0.537 0.6279)" class="st3" width="0.9" height="2.45"/>
	
		<rect x="99.32" y="96.08" transform="matrix(1 -5.766067e-03 5.766067e-03 1 -0.5594 0.5769)" class="st3" width="0.9" height="2.45"/>
	
		<rect x="101.1" y="96.07" transform="matrix(1 -5.766067e-03 5.766067e-03 1 -0.5593 0.5871)" class="st2" width="0.9" height="2.45"/>
	
		<rect x="102.87" y="96.06" transform="matrix(1 -5.766067e-03 5.766067e-03 1 -0.5592 0.5974)" class="st2" width="0.9" height="2.45"/>
	
		<rect x="104.65" y="96.05" transform="matrix(1 -5.766067e-03 5.766067e-03 1 -0.5592 0.6076)" class="st2" width="0.9" height="2.45"/>
	
		<rect x="106.43" y="96.04" transform="matrix(1 -5.766067e-03 5.766067e-03 1 -0.5591 0.6179)" class="st2" width="0.9" height="2.45"/>
	
		<rect x="108.21" y="96.03" transform="matrix(1 -5.766067e-03 5.766067e-03 1 -0.559 0.6281)" class="st2" width="0.9" height="2.45"/>
	
		<rect x="99.34" y="99.9" transform="matrix(1 -5.766067e-03 5.766067e-03 1 -0.5814 0.5771)" class="st2" width="0.9" height="2.45"/>
	
		<rect x="101.12" y="99.89" transform="matrix(1 -5.766067e-03 5.766067e-03 1 -0.5813 0.5873)" class="st3" width="0.9" height="2.45"/>
	
		<rect x="102.9" y="99.88" transform="matrix(1 -5.766067e-03 5.766067e-03 1 -0.5812 0.5976)" class="st2" width="0.9" height="2.45"/>
	
		<rect x="104.67" y="99.87" transform="matrix(1 -5.766067e-03 5.766067e-03 1 -0.5811 0.6078)" class="st3" width="0.9" height="2.45"/>
	
		<rect x="106.45" y="99.86" transform="matrix(1 -5.766067e-03 5.766067e-03 1 -0.5811 0.6181)" class="st2" width="0.9" height="2.45"/>
	
		<rect x="108.23" y="99.85" transform="matrix(1 -5.766067e-03 5.766067e-03 1 -0.581 0.6283)" class="st2" width="0.9" height="2.45"/>
	
		<rect x="99.36" y="103.71" transform="matrix(1 -5.766067e-03 5.766067e-03 1 -0.6034 0.5773)" class="st2" width="0.9" height="2.45"/>
	
		<rect x="101.14" y="103.7" transform="matrix(1 -5.766067e-03 5.766067e-03 1 -0.6033 0.5875)" class="st2" width="0.9" height="2.45"/>
	
		<rect x="102.92" y="103.69" transform="matrix(1 -5.766067e-03 5.766067e-03 1 -0.6032 0.5978)" class="st2" width="0.9" height="2.45"/>
	
		<rect x="104.7" y="103.68" transform="matrix(1 -5.766067e-03 5.766067e-03 1 -0.6031 0.608)" class="st2" width="0.9" height="2.45"/>
	
		<rect x="106.47" y="103.67" transform="matrix(1 -5.766067e-03 5.766067e-03 1 -0.603 0.6183)" class="st2" width="0.9" height="2.45"/>
	
		<rect x="108.25" y="103.66" transform="matrix(1 -5.766067e-03 5.766067e-03 1 -0.603 0.6285)" class="st3" width="0.9" height="2.45"/>
	
		<rect x="99.39" y="107.52" transform="matrix(1 -5.766067e-03 5.766067e-03 1 -0.6254 0.5775)" class="st2" width="0.9" height="2.45"/>
	
		<rect x="101.16" y="107.51" transform="matrix(1 -5.766067e-03 5.766067e-03 1 -0.6253 0.5877)" class="st3" width="0.9" height="2.45"/>
	
		<rect x="102.94" y="107.5" transform="matrix(1 -5.766067e-03 5.766067e-03 1 -0.6252 0.598)" class="st3" width="0.9" height="2.45"/>
	
		<rect x="104.72" y="107.49" transform="matrix(1 -5.766067e-03 5.766067e-03 1 -0.6251 0.6082)" class="st2" width="0.9" height="2.45"/>
	
		<rect x="106.5" y="107.48" transform="matrix(1 -5.766067e-03 5.766067e-03 1 -0.625 0.6185)" class="st2" width="0.9" height="2.45"/>
	
		<rect x="108.27" y="107.47" transform="matrix(1 -5.766067e-03 5.766067e-03 1 -0.6249 0.6287)" class="st2" width="0.9" height="2.45"/>
	
		<rect x="99.41" y="111.34" transform="matrix(1 -5.766067e-03 5.766067e-03 1 -0.6474 0.5777)" class="st2" width="0.9" height="2.45"/>
	
		<rect x="101.19" y="111.33" transform="matrix(1 -5.766067e-03 5.766067e-03 1 -0.6473 0.5879)" class="st2" width="0.9" height="2.45"/>
	
		<rect x="102.96" y="111.32" transform="matrix(1 -5.766067e-03 5.766067e-03 1 -0.6472 0.5982)" class="st2" width="0.9" height="2.45"/>
	
		<rect x="104.74" y="111.31" transform="matrix(1 -5.766067e-03 5.766067e-03 1 -0.6471 0.6084)" class="st2" width="0.9" height="2.45"/>
	
		<rect x="106.52" y="111.3" transform="matrix(1 -5.766067e-03 5.766067e-03 1 -0.647 0.6187)" class="st3" width="0.9" height="2.45"/>
	
		<rect x="108.3" y="111.29" transform="matrix(1 -5.766067e-03 5.766067e-03 1 -0.6469 0.6289)" class="st2" width="0.9" height="2.45"/>
	
		<rect x="99.43" y="115.15" transform="matrix(1 -5.766067e-03 5.766067e-03 1 -0.6694 0.5778)" class="st2" width="0.9" height="2.45"/>
	
		<rect x="101.21" y="115.14" transform="matrix(1 -5.766067e-03 5.766067e-03 1 -0.6693 0.5881)" class="st3" width="0.9" height="2.45"/>
	
		<rect x="102.99" y="115.13" transform="matrix(1 -5.766067e-03 5.766067e-03 1 -0.6692 0.5983)" class="st2" width="0.9" height="2.45"/>
	
		<rect x="104.76" y="115.12" transform="matrix(1 -5.766067e-03 5.766067e-03 1 -0.6691 0.6086)" class="st2" width="0.9" height="2.45"/>
	
		<rect x="106.54" y="115.11" transform="matrix(1 -5.766067e-03 5.766067e-03 1 -0.669 0.6188)" class="st2" width="0.9" height="2.45"/>
	
		<rect x="108.32" y="115.1" transform="matrix(1 -5.766067e-03 5.766067e-03 1 -0.6689 0.6291)" class="st2" width="0.9" height="2.45"/>
	
		<rect x="99.45" y="118.96" transform="matrix(1 -5.766067e-03 5.766067e-03 1 -0.6913 0.578)" class="st2" width="0.9" height="2.45"/>
	
		<rect x="101.23" y="118.95" transform="matrix(1 -5.766067e-03 5.766067e-03 1 -0.6913 0.5883)" class="st2" width="0.9" height="2.45"/>
	
		<rect x="103.01" y="118.94" transform="matrix(1 -5.766067e-03 5.766067e-03 1 -0.6912 0.5985)" class="st2" width="0.9" height="2.45"/>
	
		<rect x="104.79" y="118.93" transform="matrix(1 -5.766067e-03 5.766067e-03 1 -0.6911 0.6088)" class="st3" width="0.9" height="2.45"/>
	
		<rect x="106.56" y="118.92" transform="matrix(1 -5.766067e-03 5.766067e-03 1 -0.691 0.619)" class="st2" width="0.9" height="2.45"/>
	
		<rect x="108.34" y="118.91" transform="matrix(1 -5.766067e-03 5.766067e-03 1 -0.6909 0.6293)" class="st3" width="0.9" height="2.45"/>
	
		<rect x="99.48" y="122.78" transform="matrix(1 -5.766067e-03 5.766067e-03 1 -0.7133 0.5782)" class="st3" width="0.9" height="2.45"/>
	
		<rect x="101.25" y="122.77" transform="matrix(1 -5.766067e-03 5.766067e-03 1 -0.7132 0.5885)" class="st2" width="0.9" height="2.45"/>
	
		<rect x="103.03" y="122.76" transform="matrix(1 -5.766067e-03 5.766067e-03 1 -0.7132 0.5987)" class="st3" width="0.9" height="2.45"/>
	
		<rect x="104.81" y="122.75" transform="matrix(1 -5.766067e-03 5.766067e-03 1 -0.7131 0.609)" class="st2" width="0.9" height="2.45"/>
	
		<rect x="106.59" y="122.74" transform="matrix(1 -5.766067e-03 5.766067e-03 1 -0.713 0.6192)" class="st2" width="0.9" height="2.45"/>
	
		<rect x="108.36" y="122.73" transform="matrix(1 -5.766067e-03 5.766067e-03 1 -0.7129 0.6295)" class="st2" width="0.9" height="2.45"/>
</g>
<g class="st1">
	
		<rect x="63.85" y="84.71" transform="matrix(1 -5.766067e-03 5.766067e-03 1 -0.601 0.4249)" class="st2" width="19.08" height="39.45"/>
	
		<rect x="63.19" y="84.03" transform="matrix(1 -5.766067e-03 5.766067e-03 1 -0.4865 0.4239)" class="st2" width="20.17" height="1.12"/>
	
		<rect x="64.37" y="82.6" transform="matrix(1 -5.766067e-03 5.766067e-03 1 -0.4904 0.4239)" class="st2" width="17.8" height="5.3"/>
	
		<rect x="65.73" y="80.46" transform="matrix(1 -5.766067e-03 5.766067e-03 1 -0.4795 0.4007)" class="st2" width="7.05" height="5.79"/>
	<polygon class="st2" points="69.8,82.09 65.72,82.11 65.7,79.06 68.63,79.05 	"/>
	
		<rect x="67.35" y="76.52" transform="matrix(1 -5.766067e-03 5.766067e-03 1 -0.4597 0.3908)" class="st2" width="0.4" height="6.79"/>
	<path class="st2" d="M67.88,76.17c0,0.19-0.16,0.35-0.35,0.35s-0.36-0.16-0.36-0.35c0-0.19,0.16-0.35,0.35-0.35
		S67.88,75.97,67.88,76.17z"/>
</g>
<polygon class="st4" points="149.75,93.6 149.64,74.21 146.36,74.23 146.33,69.03 145.16,69.04 145.11,61.42 138.67,61.46 
	138.09,61.46 138.09,61.46 138.09,61.46 136.83,61.47 136.83,61.47 136.26,61.47 136.26,61.47 132.18,61.49 132.26,74.31 
	130.15,74.32 130.26,93.71 128.46,93.72 128.67,129.04 151.23,128.91 151.02,93.59 "/>
<rect x="28.41" y="131.55" transform="matrix(1 -5.766067e-03 5.766067e-03 1 -0.7835 0.6154)" class="st2" width="155.85" height="9.28"/>
<polygon class="st3" points="174.94,89.71 174.88,79.99 171.33,80.01 171.31,76.31 169.41,76.32 169.39,73.22 168.73,73.22 
	168.73,73.22 168.73,73.22 168.55,73.22 167.89,73.22 167.91,76.33 166.01,76.34 166.03,80.04 162.51,80.06 162.57,89.78 
	161.83,89.79 161.94,107.43 156.48,107.47 156.6,127.58 162.05,127.55 167.51,127.52 175.86,127.47 175.64,89.71 "/>
<rect x="101.96" y="108.42" transform="matrix(1 -5.766067e-03 5.766067e-03 1 -0.6925 0.6338)" class="st2" width="15.23" height="23.98"/>
<rect x="73.52" y="120.84" transform="matrix(1 -5.766067e-03 5.766067e-03 1 -0.7291 0.5015)" class="st2" width="26.19" height="11.69"/>
<rect x="87.45" y="94.7" transform="matrix(1 -5.766067e-03 5.766067e-03 1 -0.6273 0.5226)" class="st2" width="5.75" height="28.71"/>
<rect x="88.64" y="87.04" transform="matrix(1 -5.766067e-03 5.766067e-03 1 -0.5454 0.5135)" class="st2" width="0.3" height="15.62"/>
<rect x="87.81" y="92.92" transform="matrix(1 -5.766067e-03 5.766067e-03 1 -0.5454 0.518)" class="st2" width="3.51" height="3.85"/>
<rect x="98.66" y="112.75" transform="matrix(1 -5.766067e-03 5.766067e-03 1 -0.7052 0.5997)" class="st2" width="10.01" height="19.69"/>
<rect x="119.61" y="91.77" transform="matrix(1 -5.766067e-03 5.766067e-03 1 -0.6438 0.7457)" class="st2" width="18.78" height="40.52"/>
<rect x="121.35" y="90.38" transform="matrix(1 -5.766067e-03 5.766067e-03 1 -0.5384 0.7448)" class="st2" width="15.09" height="6.75"/>
<rect x="116.27" y="111.88" transform="matrix(1 -5.766067e-03 5.766067e-03 1 -0.7021 0.6979)" class="st2" width="8.85" height="20.46"/>
<rect x="52.88" y="111.46" transform="matrix(1 -5.766067e-03 5.766067e-03 1 -0.703 0.3362)" class="st2" width="10.15" height="21.24"/>
<g>
	
		<rect x="56.15" y="105.64" transform="matrix(1 -5.766067e-03 5.766067e-03 1 -0.6859 0.3841)" class="st2" width="20.23" height="27.01"/>
	
		<rect x="54.89" y="104.61" transform="matrix(1 -5.766067e-03 5.766067e-03 1 -0.6051 0.3815)" class="st2" width="21.94" height="1.04"/>
	
		<rect x="56.96" y="101.82" transform="matrix(1 -5.766067e-03 5.766067e-03 1 -0.6019 0.3558)" class="st2" width="8.89" height="5.48"/>
	
		<rect x="68.75" y="101.77" transform="matrix(1 -5.766067e-03 5.766067e-03 1 -0.5953 0.4024)" class="st2" width="1.49" height="3.33"/>
	
		<rect x="71.74" y="101.75" transform="matrix(1 -5.766067e-03 5.766067e-03 1 -0.5951 0.4201)" class="st2" width="1.64" height="3.33"/>
</g>
<rect x="47.39" y="124.52" transform="matrix(1 -5.766067e-03 5.766067e-03 1 -0.7408 0.306)" class="st2" width="10.6" height="8.21"/>
<rect x="43.38" y="121.08" transform="matrix(1 -5.766067e-03 5.766067e-03 1 -0.7311 0.2667)" class="st2" width="5.02" height="11.69"/>
<rect x="136.64" y="123.01" transform="matrix(1 -5.766067e-03 5.766067e-03 1 -0.7356 0.9204)" class="st2" width="45.24" height="10.04"/>
<polygon class="st2" points="96.51,100.87 96.52,101.31 96.08,101.31 96.09,102.55 103.8,102.51 104.03,140.84 91.37,140.91 
	91.15,104.58 91.14,102.58 91.13,101.34 90.67,101.34 90.67,100.9 "/>
<rect x="118.26" y="118.13" transform="matrix(1 -5.766067e-03 5.766067e-03 1 -0.7442 0.7153)" class="st0" width="10.85" height="22.6"/>
<g>
	
		<rect x="70.97" y="113.22" transform="matrix(1 -5.766067e-03 5.766067e-03 1 -0.7317 0.4367)" class="st0" width="8.82" height="27.78"/>
	
		<rect x="78.05" y="118.97" transform="matrix(1 -5.766067e-03 5.766067e-03 1 -0.748 0.4799)" class="st0" width="9.61" height="21.99"/>
	
		<rect x="74.06" y="112.11" transform="matrix(1 -5.766067e-03 5.766067e-03 1 -0.6547 0.4402)" class="st0" width="3.9" height="3.32"/>
	
		<rect x="78.65" y="118.6" transform="matrix(1 -5.766067e-03 5.766067e-03 1 -0.6848 0.485)" class="st0" width="10.24" height="0.81"/>
</g>
<rect x="86.66" y="128.35" transform="matrix(1 -5.766067e-03 5.766067e-03 1 -0.7748 0.533)" class="st0" width="10.77" height="12.56"/>
<rect x="51.81" y="118.34" transform="matrix(1 -5.766067e-03 5.766067e-03 1 -0.7471 0.3262)" class="st0" width="8.76" height="22.78"/>
<rect x="42.82" y="129.73" transform="matrix(1 -5.766067e-03 5.766067e-03 1 -0.7802 0.2824)" class="st0" width="11.53" height="11.43"/>
<rect x="31.54" y="127.94" transform="matrix(1 -5.766067e-03 5.766067e-03 1 -0.7755 0.2049)" class="st5" width="7.21" height="13.29"/>
<rect x="37.38" y="137.01" transform="matrix(1 -5.766067e-03 5.766067e-03 1 -0.8013 0.267)" class="st0" width="17.04" height="4.16"/>
<rect x="60.62" y="132.65" transform="matrix(1 -5.766067e-03 5.766067e-03 1 -0.788 0.3909)" class="st0" width="13.58" height="8.41"/>
<rect x="100.46" y="137.18" transform="matrix(1 -5.766067e-03 5.766067e-03 1 -0.7996 0.6426)" class="st0" width="21.15" height="3.62"/>
<rect x="137.96" y="136.96" transform="matrix(1 -5.766067e-03 5.766067e-03 1 -0.7977 0.8588)" class="st0" width="21.15" height="3.62"/>
<polygon class="st0" points="120.72,126.49 112.68,126.54 109.35,139 120.79,138.93 "/>
<rect x="123.89" y="114.47" transform="matrix(1 -5.766067e-03 5.766067e-03 1 -0.6696 0.728)" class="st0" width="4.07" height="4.03"/>
<rect x="123.19" y="114.16" transform="matrix(1 -5.766067e-03 5.766067e-03 1 -0.6572 0.7278)" class="st0" width="5.39" height="0.36"/>
<rect x="127.16" y="129.01" transform="matrix(1 -5.766067e-03 5.766067e-03 1 -0.7753 0.7734)" class="st0" width="13.14" height="11.66"/>
<rect x="133.22" y="115.51" transform="matrix(1 -5.766067e-03 5.766067e-03 1 -0.7286 0.7946)" class="st0" width="8.44" height="22.49"/>
<rect x="166.55" y="132.97" transform="matrix(1 -5.766067e-03 5.766067e-03 1 -0.7853 1.0069)" class="st0" width="15.38" height="7.47"/>
<rect x="30.58" y="119.56" transform="matrix(1 -5.766081e-03 5.766081e-03 1 -0.7512 0.2174)" class="st0" width="13.49" height="21.67"/>
<rect x="22.01" y="138.61" transform="matrix(1 -5.766067e-03 5.766067e-03 1 -0.8065 0.1581)" class="st0" width="10" height="2.67"/>
<path class="st6" d="M221.04,65.26"/>
<path class="st6" d="M221.04,65.26"/>
<linearGradient id="SVGID_1_" gradientUnits="userSpaceOnUse" x1="89.0279" y1="34.4066" x2="135.886" y2="34.4066" gradientTransform="matrix(0.981 -0.1941 0.1941 0.981 -8.0666 28.1044)">
	<stop  offset="0" style="stop-color:#7D262B"/>
	<stop  offset="1" style="stop-color:#D74654"/>
</linearGradient>
<path class="st7" d="M119.95,10.51c-6.69-4.44-15.42-5.15-22.75-1.85c-5.59,2.51-10.03,7.22-12.22,12.9
	c-1.11,2.88-1.63,5.98-1.51,9.06c0.12,3.36,1.06,6.62,2.41,9.69c2.54,5.79,9.2,10.47,13.44,15.14c3.69,4.07,5.04,4.6,8.69,8.76
	c1.1,1.25,2.21,2.73,3.54,3.74c0.7,0.53,3.98,4.75,4.85,4.87c0.14,0.02-0.14,0.02,0,0c0.19-0.03-0.17,0.1,0,0
	c0.4-0.24,0.74-1.24,0.99-1.63c0.12-0.2-0.12,0.2,0,0c0.71-1.2,3.14-6.29,3.79-7.52c2.47-4.61,2.85-6.71,4.7-11.6
	c2.23-5.93,4.01-12.14,4.44-18.48c0.23-3.44,0.07-6.99-0.91-10.31c-1.03-3.5-2.9-6.74-5.43-9.39
	C122.77,12.61,121.41,11.48,119.95,10.51 M121.79,32.12c-1.12,7.03-7.3,12.45-14.49,12.64c-5.46,0.14-10.7-2.79-13.44-7.46
	c-2.8-4.78-2.66-10.85,0.34-15.51c3.2-4.98,9.24-7.68,15.14-6.72c7.07,1.15,12.47,7.29,12.64,14.4
	C121.99,30.35,121.93,31.24,121.79,32.12C121.73,32.48,122.06,30.43,121.79,32.12z"/>
<linearGradient id="SVGID_2_" gradientUnits="userSpaceOnUse" x1="124.1887" y1="67.6442" x2="124.1887" y2="1.4488" gradientTransform="matrix(0.9369 -0.1854 0.1959 0.99 -2.2899 26.7131)">
	<stop  offset="0" style="stop-color:#7D262B"/>
	<stop  offset="1" style="stop-color:#D74654"/>
</linearGradient>
<path class="st8" d="M129.91,25.98c1.17,5.86,0.4,12.05-0.91,17.76c-1.24,5.44-3.09,10.71-5.23,15.81
	c-1.47,3.5-3.09,6.93-4.88,10.26c-0.3,0.56-0.59,1.11-0.91,1.66c-0.22,0.38-0.5,0.78-0.86,1.02c-0.12,0.08-0.55,0.41-0.7,0.27
	c-0.08-0.07-0.09-0.45-0.11-0.55c-0.56-2.83-1.13-5.66-1.69-8.49c-0.8-3.98-1.59-7.97-2.39-11.95c-0.3-1.51-0.6-3.01-0.9-4.52
	c-0.09-0.47-0.19-0.95-0.28-1.42c-0.03-0.13-0.19-0.56-0.14-0.69c0.07-0.16,0.89-0.25,1.1-0.31c0.85-0.24,1.67-0.57,2.46-0.96
	c1.56-0.79,2.98-1.89,4.16-3.23c2.39-2.72,3.76-6.33,3.75-10.06c-0.01-3.84-1.46-7.62-4-10.45c-2.2-2.45-5.16-4.11-8.32-4.67
	c-0.86-0.15-1.74-0.22-2.61-0.21c-0.4,0.01-0.81,0.03-1.21,0.07c-0.22,0.02-0.44,0.05-0.66,0.09c-0.06,0.01-0.53,0.14-0.58,0.1
	c-0.05-0.04-0.07-0.33-0.08-0.39c-0.06-0.32-0.13-0.64-0.19-0.96c-0.38-1.88-0.75-3.76-1.13-5.64c-0.08-0.41-0.16-0.81-0.24-1.22
	c4.9-0.96,10.06-0.17,14.54,2.25c3.85,2.07,7.12,5.28,9.32,9.17C128.49,20.97,129.4,23.44,129.91,25.98z"/>
<g>
	<linearGradient id="SVGID_3_" gradientUnits="userSpaceOnUse" x1="91.0527" y1="29.8107" x2="122.7552" y2="29.8107">
		<stop  offset="0" style="stop-color:#D74654"/>
		<stop  offset="1" style="stop-color:#7D262B"/>
	</linearGradient>
	<path class="st9" d="M91.36,32.85c1.28,6.41,6.63,11.48,13.15,12.47c6.57,1,13.21-2.31,16.37-8.09c3.16-5.79,2.27-13.13-2.21-17.99
		c-4.48-4.87-11.76-6.48-17.9-3.92c-6.02,2.5-9.96,8.64-9.7,15.1C91.1,31.24,91.2,32.05,91.36,32.85z M109.72,17.87
		c5.66,1.3,9.75,6.52,9.58,12.28c-0.13,4.43-2.79,8.56-6.77,10.57c-4.08,2.06-9.08,1.67-12.8-0.95c-4.02-2.84-5.98-7.94-4.86-12.72
		c1.34-5.71,6.76-9.78,12.68-9.48C108.28,17.6,109,17.71,109.72,17.87C110.11,17.96,109.43,17.8,109.72,17.87z"/>
</g>
<linearGradient id="SVGID_4_" gradientUnits="userSpaceOnUse" x1="106.6244" y1="23.9859" x2="118.2798" y2="23.9859" gradientTransform="matrix(0.981 -0.1941 0.1941 0.981 -8.0666 28.1044)">
	<stop  offset="0" style="stop-color:#7D262B"/>
	<stop  offset="1" style="stop-color:#D74654"/>
</linearGradient>
<path class="st10" d="M105.77,24.14c-2.39,0.47-4.27,2.43-4.63,4.81c-0.37,2.39,0.87,4.81,3.01,5.95c2.15,1.15,4.87,0.82,6.68-0.81
	c1.8-1.62,2.4-4.25,1.48-6.48C111.25,25.09,108.46,23.61,105.77,24.14z"/>
<rect x="165.33" y="85.67" transform="matrix(1 -5.766089e-03 5.766089e-03 1 -0.6422 1.0006)" class="st2" width="15.77" height="52.42"/>
<g>
	<polygon class="st0" points="167.8,140.47 149.36,140.58 149.11,98.55 167.53,93.98 	"/>
	
		<rect x="148.42" y="97.81" transform="matrix(1 -5.766067e-03 5.766067e-03 1 -0.6848 0.8625)" class="st0" width="1.62" height="42.77"/>
	
		<rect x="153.03" y="96.58" transform="matrix(1 -5.766067e-03 5.766067e-03 1 -0.6811 0.889)" class="st0" width="1.62" height="43.97"/>
	
		<rect x="157.64" y="95.3" transform="matrix(1 -5.766067e-03 5.766067e-03 1 -0.6773 0.9156)" class="st0" width="1.62" height="45.22"/>
	
		<rect x="162.24" y="94.26" transform="matrix(1 -5.766067e-03 5.766067e-03 1 -0.6741 0.9421)" class="st0" width="1.62" height="46.24"/>
	
		<rect x="166.85" y="93.15" transform="matrix(1 -5.766067e-03 5.766067e-03 1 -0.6707 0.9687)" class="st0" width="1.62" height="47.33"/>
	
		<rect x="150.37" y="101.39" transform="matrix(1 -5.766067e-03 5.766067e-03 1 -0.5915 0.8749)" class="st11" width="2.15" height="3.25"/>
	
		<rect x="154.98" y="101.36" transform="matrix(1 -5.766067e-03 5.766067e-03 1 -0.5912 0.9015)" class="st11" width="2.15" height="3.25"/>
	
		<rect x="159.59" y="101.34" transform="matrix(1 -5.766067e-03 5.766067e-03 1 -0.591 0.9281)" class="st0" width="2.15" height="3.25"/>
	
		<rect x="164.2" y="101.31" transform="matrix(1 -5.766067e-03 5.766067e-03 1 -0.5908 0.9547)" class="st11" width="2.15" height="3.25"/>
	
		<rect x="150.4" y="107.05" transform="matrix(1 -5.766067e-03 5.766067e-03 1 -0.6241 0.8752)" class="st0" width="2.15" height="3.25"/>
	
		<rect x="155.01" y="107.02" transform="matrix(1 -5.766067e-03 5.766067e-03 1 -0.6238 0.9018)" class="st0" width="2.15" height="3.25"/>
	
		<rect x="159.62" y="106.99" transform="matrix(1 -5.766067e-03 5.766067e-03 1 -0.6236 0.9284)" class="st11" width="2.15" height="3.25"/>
	
		<rect x="164.23" y="106.97" transform="matrix(1 -5.766067e-03 5.766067e-03 1 -0.6234 0.955)" class="st11" width="2.15" height="3.25"/>
	
		<rect x="150.43" y="112.7" transform="matrix(1 -5.766067e-03 5.766067e-03 1 -0.6567 0.8755)" class="st11" width="2.15" height="3.25"/>
	
		<rect x="155.04" y="112.67" transform="matrix(1 -5.766067e-03 5.766067e-03 1 -0.6565 0.9021)" class="st11" width="2.15" height="3.25"/>
	
		<rect x="159.65" y="112.65" transform="matrix(1 -5.766067e-03 5.766067e-03 1 -0.6562 0.9287)" class="st11" width="2.15" height="3.25"/>
	
		<rect x="164.26" y="112.62" transform="matrix(1 -5.766067e-03 5.766067e-03 1 -0.656 0.9553)" class="st0" width="2.15" height="3.25"/>
	
		<rect x="150.47" y="118.36" transform="matrix(1 -5.766067e-03 5.766067e-03 1 -0.6893 0.8758)" class="st11" width="2.15" height="3.25"/>
	
		<rect x="155.08" y="118.33" transform="matrix(1 -5.766067e-03 5.766067e-03 1 -0.6891 0.9024)" class="st0" width="2.15" height="3.25"/>
	
		<rect x="159.69" y="118.3" transform="matrix(1 -5.766067e-03 5.766067e-03 1 -0.6888 0.929)" class="st11" width="2.15" height="3.25"/>
	
		<rect x="164.3" y="118.28" transform="matrix(1 -5.766067e-03 5.766067e-03 1 -0.6886 0.9555)" class="st11" width="2.15" height="3.25"/>
	
		<rect x="150.5" y="124.01" transform="matrix(1 -5.766067e-03 5.766067e-03 1 -0.7219 0.8761)" class="st11" width="2.15" height="3.25"/>
	
		<rect x="155.11" y="123.98" transform="matrix(1 -5.766067e-03 5.766067e-03 1 -0.7217 0.9027)" class="st11" width="2.15" height="3.25"/>
	
		<rect x="159.72" y="123.96" transform="matrix(1 -5.766067e-03 5.766067e-03 1 -0.7214 0.9292)" class="st0" width="2.15" height="3.25"/>
	
		<rect x="164.33" y="123.93" transform="matrix(1 -5.766067e-03 5.766067e-03 1 -0.7212 0.9558)" class="st11" width="2.15" height="3.25"/>
	
		<rect x="150.53" y="129.67" transform="matrix(1 -5.766067e-03 5.766067e-03 1 -0.7545 0.8764)" class="st0" width="2.15" height="3.25"/>
	
		<rect x="155.14" y="129.64" transform="matrix(1 -5.766067e-03 5.766067e-03 1 -0.7543 0.903)" class="st0" width="2.15" height="3.25"/>
	
		<rect x="159.75" y="129.61" transform="matrix(1 -5.766067e-03 5.766067e-03 1 -0.754 0.9295)" class="st11" width="2.15" height="3.25"/>
	
		<rect x="164.36" y="129.59" transform="matrix(1 -5.766067e-03 5.766067e-03 1 -0.7538 0.9561)" class="st11" width="2.15" height="3.25"/>
	
		<rect x="150.57" y="135.32" transform="matrix(1 -5.766067e-03 5.766067e-03 1 -0.7871 0.8767)" class="st11" width="2.15" height="3.25"/>
	
		<rect x="155.18" y="135.29" transform="matrix(1 -5.766067e-03 5.766067e-03 1 -0.7869 0.9032)" class="st0" width="2.15" height="3.25"/>
	
		<rect x="159.79" y="135.27" transform="matrix(1 -5.766067e-03 5.766067e-03 1 -0.7867 0.9298)" class="st11" width="2.15" height="3.25"/>
	
		<rect x="164.4" y="135.24" transform="matrix(1 -5.766067e-03 5.766067e-03 1 -0.7864 0.9564)" class="st0" width="2.15" height="3.25"/>
</g>
<rect x="170.74" y="120.16" transform="matrix(1 -5.766067e-03 5.766067e-03 1 -0.7483 1.0256)" class="st0" width="13.49" height="20.26"/>
</svg>
