<?xml version="1.0" encoding="utf-8"?>
<!-- Generator: Adobe Illustrator 25.2.3, SVG Export Plug-In . SVG Version: 6.00 Build 0)  -->
<svg version="1.1" id="Layer_1" xmlns="http://www.w3.org/2000/svg" xmlns:xlink="http://www.w3.org/1999/xlink" x="0px" y="0px"
	 viewBox="0 0 955.05 467.39" style="enable-background:new 0 0 955.05 467.39;" xml:space="preserve">
<style type="text/css">
	.st0{fill:#C3DFC3;}
	.st1{opacity:0.34;}
	.st2{fill:#9EC59E;}
	.st3{opacity:0.29;fill:#9EC59E;enable-background:new    ;}
	.st4{opacity:0.34;fill:#9EC59E;enable-background:new    ;}
	.st5{fill:#568382;}
	.st6{stroke:#000000;stroke-miterlimit:10;}
	.st7{fill:url(#SVGID_1_);}
	.st8{fill:url(#SVGID_2_);}
	.st9{fill:url(#SVGID_3_);}
	.st10{fill:url(#SVGID_4_);}
	.st11{opacity:0.29;fill:#C3DFC3;enable-background:new    ;}
</style>
<g>
	
		<rect x="623.52" y="316.39" transform="matrix(1 -5.789484e-03 5.789484e-03 1 -1.8374 3.6759)" class="st0" width="20.98" height="5.62"/>
	<g class="st1">
		
			<rect x="444.79" y="200.69" transform="matrix(1 -5.789484e-03 5.789484e-03 1 -1.4398 2.6514)" class="st2" width="24.9" height="98.64"/>
		
			<rect x="448.65" y="193.62" transform="matrix(1 -5.789484e-03 5.789484e-03 1 -1.2333 2.6496)" class="st2" width="16.76" height="41.45"/>
		
			<rect x="452.3" y="189.13" transform="matrix(1 -5.789484e-03 5.789484e-03 1 -1.1539 2.6488)" class="st2" width="9.29" height="23"/>
		<polygon class="st2" points="460.12,200.92 453.78,200.96 453.68,185.29 455.97,185.29 458.23,185.27 460.01,185.27 		"/>
		<g>
			<polygon class="st2" points="456.49,194.12 455.8,194.14 455.71,178.47 455.97,178.47 456.2,178.47 456.41,178.47 			"/>
			<polygon class="st2" points="457.98,188.7 457.29,188.7 457.2,173.03 457.45,173.03 457.69,173.03 457.9,173.03 			"/>
		</g>
		
			<rect x="443.84" y="200.44" transform="matrix(1 -5.789484e-03 5.789484e-03 1 -1.1558 2.6489)" class="st2" width="26.22" height="1.05"/>
		
			<rect x="447.91" y="193.11" transform="matrix(1 -5.789484e-03 5.789484e-03 1 -1.1133 2.6485)" class="st2" width="17.98" height="1.01"/>
		
			<rect x="451.56" y="188.71" transform="matrix(1 -5.789484e-03 5.789484e-03 1 -1.0871 2.6475)" class="st2" width="10.36" height="0.78"/>
		
			<rect x="450.1" y="195.34" transform="matrix(1 -5.789484e-03 5.789484e-03 1 -1.1359 2.6114)" class="st3" width="0.78" height="4.34"/>
		
			<rect x="452.26" y="195.32" transform="matrix(1 -5.789484e-03 5.789484e-03 1 -1.1358 2.6239)" class="st3" width="0.78" height="4.34"/>
		
			<rect x="454.4" y="195.32" transform="matrix(1 -5.789484e-03 5.789484e-03 1 -1.1357 2.6363)" class="st3" width="0.78" height="4.34"/>
		
			<rect x="456.56" y="195.3" transform="matrix(1 -5.789484e-03 5.789484e-03 1 -1.1356 2.6488)" class="st3" width="0.78" height="4.34"/>
		
			<rect x="458.72" y="195.3" transform="matrix(1 -5.789484e-03 5.789484e-03 1 -1.1356 2.6613)" class="st3" width="0.78" height="4.34"/>
		
			<rect x="460.88" y="195.28" transform="matrix(1 -5.789484e-03 5.789484e-03 1 -1.1354 2.6738)" class="st3" width="0.78" height="4.34"/>
		
			<rect x="463.02" y="195.26" transform="matrix(1 -5.789484e-03 5.789484e-03 1 -1.1352 2.6862)" class="st3" width="0.78" height="4.34"/>
		
			<rect x="446.72" y="204.67" transform="matrix(1 -5.789484e-03 5.789484e-03 1 -1.1924 2.5952)" class="st2" width="1.89" height="5.16"/>
		
			<rect x="450.45" y="204.65" transform="matrix(1 -5.789484e-03 5.789484e-03 1 -1.1922 2.6168)" class="st3" width="1.89" height="5.16"/>
		
			<rect x="454.19" y="204.63" transform="matrix(1 -5.789484e-03 5.789484e-03 1 -1.192 2.6384)" class="st2" width="1.89" height="5.16"/>
		
			<rect x="457.92" y="204.61" transform="matrix(1 -5.789484e-03 5.789484e-03 1 -1.1918 2.6601)" class="st2" width="1.89" height="5.16"/>
		
			<rect x="461.63" y="204.59" transform="matrix(1 -5.789484e-03 5.789484e-03 1 -1.1917 2.6816)" class="st2" width="1.89" height="5.16"/>
		
			<rect x="465.37" y="204.57" transform="matrix(1 -5.789484e-03 5.789484e-03 1 -1.1915 2.7032)" class="st2" width="1.89" height="5.16"/>
		
			<rect x="446.76" y="212.72" transform="matrix(1 -5.789484e-03 5.789484e-03 1 -1.239 2.5956)" class="st2" width="1.89" height="5.16"/>
		
			<rect x="450.49" y="212.7" transform="matrix(1 -5.789484e-03 5.789484e-03 1 -1.2388 2.6172)" class="st2" width="1.89" height="5.16"/>
		
			<rect x="454.23" y="212.68" transform="matrix(1 -5.789484e-03 5.789484e-03 1 -1.2386 2.6388)" class="st2" width="1.89" height="5.16"/>
		
			<rect x="457.96" y="212.66" transform="matrix(1 -5.789484e-03 5.789484e-03 1 -1.2384 2.6604)" class="st3" width="1.89" height="5.16"/>
		
			<rect x="461.7" y="212.64" transform="matrix(1 -5.789484e-03 5.789484e-03 1 -1.2382 2.6821)" class="st2" width="1.89" height="5.16"/>
		
			<rect x="465.41" y="212.61" transform="matrix(1 -5.789484e-03 5.789484e-03 1 -1.2381 2.7036)" class="st2" width="1.89" height="5.16"/>
		
			<rect x="446.82" y="220.75" transform="matrix(1 -5.789484e-03 5.789484e-03 1 -1.2854 2.5961)" class="st2" width="1.89" height="5.16"/>
		
			<rect x="450.54" y="220.72" transform="matrix(1 -5.789484e-03 5.789484e-03 1 -1.2852 2.6176)" class="st2" width="1.89" height="5.16"/>
		
			<rect x="454.27" y="220.7" transform="matrix(1 -5.789484e-03 5.789484e-03 1 -1.2851 2.6392)" class="st2" width="1.89" height="5.16"/>
		
			<rect x="458" y="220.68" transform="matrix(1 -5.789484e-03 5.789484e-03 1 -1.2849 2.6608)" class="st2" width="1.89" height="5.16"/>
		
			<rect x="461.74" y="220.66" transform="matrix(1 -5.789484e-03 5.789484e-03 1 -1.2847 2.6824)" class="st3" width="1.89" height="5.16"/>
		
			<rect x="465.47" y="220.64" transform="matrix(1 -5.789484e-03 5.789484e-03 1 -1.2845 2.704)" class="st3" width="1.89" height="5.16"/>
		
			<rect x="446.86" y="228.77" transform="matrix(1 -5.789484e-03 5.789484e-03 1 -1.3319 2.5965)" class="st3" width="1.89" height="5.16"/>
		
			<rect x="450.6" y="228.75" transform="matrix(1 -5.789484e-03 5.789484e-03 1 -1.3317 2.6181)" class="st2" width="1.89" height="5.16"/>
		
			<rect x="454.31" y="228.73" transform="matrix(1 -5.789484e-03 5.789484e-03 1 -1.3315 2.6396)" class="st2" width="1.89" height="5.16"/>
		
			<rect x="458.05" y="228.71" transform="matrix(1 -5.789484e-03 5.789484e-03 1 -1.3313 2.6612)" class="st2" width="1.89" height="5.16"/>
		
			<rect x="461.78" y="228.69" transform="matrix(1 -5.789484e-03 5.789484e-03 1 -1.3312 2.6828)" class="st2" width="1.89" height="5.16"/>
		
			<rect x="465.51" y="228.66" transform="matrix(1 -5.789484e-03 5.789484e-03 1 -1.331 2.7044)" class="st2" width="1.89" height="5.16"/>
		
			<rect x="446.91" y="236.82" transform="matrix(1 -5.789484e-03 5.789484e-03 1 -1.3785 2.5968)" class="st2" width="1.89" height="5.16"/>
		
			<rect x="450.64" y="236.8" transform="matrix(1 -5.789484e-03 5.789484e-03 1 -1.3783 2.6185)" class="st3" width="1.89" height="5.16"/>
		
			<rect x="454.37" y="236.77" transform="matrix(1 -5.789484e-03 5.789484e-03 1 -1.3781 2.6401)" class="st2" width="1.89" height="5.16"/>
		
			<rect x="458.09" y="236.75" transform="matrix(1 -5.789484e-03 5.789484e-03 1 -1.3779 2.6616)" class="st3" width="1.89" height="5.16"/>
		
			<rect x="461.82" y="236.73" transform="matrix(1 -5.789484e-03 5.789484e-03 1 -1.3777 2.6832)" class="st2" width="1.89" height="5.16"/>
		
			<rect x="465.56" y="236.71" transform="matrix(1 -5.789484e-03 5.789484e-03 1 -1.3776 2.7048)" class="st2" width="1.89" height="5.16"/>
		
			<rect x="446.95" y="244.84" transform="matrix(1 -5.789484e-03 5.789484e-03 1 -1.4249 2.5972)" class="st2" width="1.89" height="5.16"/>
		
			<rect x="450.68" y="244.82" transform="matrix(1 -5.789484e-03 5.789484e-03 1 -1.4248 2.6188)" class="st2" width="1.89" height="5.16"/>
		
			<rect x="454.42" y="244.8" transform="matrix(1 -5.789484e-03 5.789484e-03 1 -1.4246 2.6404)" class="st2" width="1.89" height="5.16"/>
		
			<rect x="458.15" y="244.78" transform="matrix(1 -5.789484e-03 5.789484e-03 1 -1.4244 2.6621)" class="st2" width="1.89" height="5.16"/>
		
			<rect x="461.86" y="244.76" transform="matrix(1 -5.789484e-03 5.789484e-03 1 -1.4242 2.6836)" class="st2" width="1.89" height="5.16"/>
		
			<rect x="465.6" y="244.74" transform="matrix(1 -5.789484e-03 5.789484e-03 1 -1.424 2.7052)" class="st3" width="1.89" height="5.16"/>
		
			<rect x="447.01" y="252.87" transform="matrix(1 -5.789484e-03 5.789484e-03 1 -1.4714 2.5977)" class="st2" width="1.89" height="5.16"/>
		
			<rect x="450.72" y="252.85" transform="matrix(1 -5.789484e-03 5.789484e-03 1 -1.4712 2.6192)" class="st3" width="1.89" height="5.16"/>
		
			<rect x="454.46" y="252.82" transform="matrix(1 -5.789484e-03 5.789484e-03 1 -1.471 2.6408)" class="st3" width="1.89" height="5.16"/>
		
			<rect x="458.19" y="252.8" transform="matrix(1 -5.789484e-03 5.789484e-03 1 -1.4708 2.6624)" class="st2" width="1.89" height="5.16"/>
		
			<rect x="461.93" y="252.78" transform="matrix(1 -5.789484e-03 5.789484e-03 1 -1.4707 2.6841)" class="st2" width="1.89" height="5.16"/>
		
			<rect x="465.64" y="252.76" transform="matrix(1 -5.789484e-03 5.789484e-03 1 -1.4705 2.7056)" class="st2" width="1.89" height="5.16"/>
		
			<rect x="447.05" y="260.91" transform="matrix(1 -5.789484e-03 5.789484e-03 1 -1.518 2.5981)" class="st2" width="1.89" height="5.16"/>
		
			<rect x="450.79" y="260.89" transform="matrix(1 -5.789484e-03 5.789484e-03 1 -1.5178 2.6197)" class="st2" width="1.89" height="5.16"/>
		
			<rect x="454.5" y="260.87" transform="matrix(1 -5.789484e-03 5.789484e-03 1 -1.5176 2.6412)" class="st2" width="1.89" height="5.16"/>
		
			<rect x="458.23" y="260.85" transform="matrix(1 -5.789484e-03 5.789484e-03 1 -1.5174 2.6628)" class="st2" width="1.89" height="5.16"/>
		
			<rect x="461.97" y="260.83" transform="matrix(1 -5.789484e-03 5.789484e-03 1 -1.5172 2.6844)" class="st3" width="1.89" height="5.16"/>
		
			<rect x="465.7" y="260.81" transform="matrix(1 -5.789484e-03 5.789484e-03 1 -1.5171 2.7061)" class="st2" width="1.89" height="5.16"/>
		
			<rect x="447.1" y="268.94" transform="matrix(1 -5.789484e-03 5.789484e-03 1 -1.5644 2.5985)" class="st2" width="1.89" height="5.16"/>
		
			<rect x="450.83" y="268.92" transform="matrix(1 -5.789484e-03 5.789484e-03 1 -1.5643 2.6201)" class="st3" width="1.89" height="5.16"/>
		
			<rect x="454.56" y="268.9" transform="matrix(1 -5.789484e-03 5.789484e-03 1 -1.5641 2.6417)" class="st2" width="1.89" height="5.16"/>
		
			<rect x="458.28" y="268.88" transform="matrix(1 -5.789484e-03 5.789484e-03 1 -1.5639 2.6632)" class="st2" width="1.89" height="5.16"/>
		
			<rect x="462.01" y="268.85" transform="matrix(1 -5.789484e-03 5.789484e-03 1 -1.5637 2.6848)" class="st2" width="1.89" height="5.16"/>
		
			<rect x="465.74" y="268.83" transform="matrix(1 -5.789484e-03 5.789484e-03 1 -1.5635 2.7064)" class="st2" width="1.89" height="5.16"/>
		
			<rect x="447.14" y="276.96" transform="matrix(1 -5.789484e-03 5.789484e-03 1 -1.6109 2.5988)" class="st2" width="1.89" height="5.16"/>
		
			<rect x="450.87" y="276.94" transform="matrix(1 -5.789484e-03 5.789484e-03 1 -1.6107 2.6205)" class="st2" width="1.89" height="5.16"/>
		
			<rect x="454.61" y="276.92" transform="matrix(1 -5.789484e-03 5.789484e-03 1 -1.6105 2.6421)" class="st2" width="1.89" height="5.16"/>
		
			<rect x="458.34" y="276.9" transform="matrix(1 -5.789484e-03 5.789484e-03 1 -1.6104 2.6637)" class="st3" width="1.89" height="5.16"/>
		
			<rect x="462.05" y="276.88" transform="matrix(1 -5.789484e-03 5.789484e-03 1 -1.6102 2.6852)" class="st2" width="1.89" height="5.16"/>
		
			<rect x="465.79" y="276.86" transform="matrix(1 -5.789484e-03 5.789484e-03 1 -1.61 2.7068)" class="st3" width="1.89" height="5.16"/>
		
			<rect x="447.2" y="285.01" transform="matrix(1 -5.789484e-03 5.789484e-03 1 -1.6575 2.5993)" class="st3" width="1.89" height="5.16"/>
		
			<rect x="450.91" y="284.99" transform="matrix(1 -5.789484e-03 5.789484e-03 1 -1.6573 2.6208)" class="st2" width="1.89" height="5.16"/>
		
			<rect x="454.65" y="284.97" transform="matrix(1 -5.789484e-03 5.789484e-03 1 -1.6571 2.6425)" class="st3" width="1.89" height="5.16"/>
		
			<rect x="458.38" y="284.95" transform="matrix(1 -5.789484e-03 5.789484e-03 1 -1.6569 2.6641)" class="st2" width="1.89" height="5.16"/>
		
			<rect x="462.12" y="284.93" transform="matrix(1 -5.789484e-03 5.789484e-03 1 -1.6567 2.6857)" class="st2" width="1.89" height="5.16"/>
		
			<rect x="465.83" y="284.9" transform="matrix(1 -5.789484e-03 5.789484e-03 1 -1.6566 2.7072)" class="st2" width="1.89" height="5.16"/>
	</g>
	<g class="st1">
		
			<rect x="372.46" y="204.82" transform="matrix(1 -5.789484e-03 5.789484e-03 1 -1.4198 2.2763)" class="st2" width="40.03" height="83.1"/>
		
			<rect x="371.07" y="203.39" transform="matrix(1 -5.789484e-03 5.789484e-03 1 -1.1778 2.2742)" class="st2" width="42.31" height="2.36"/>
		
			<rect x="373.55" y="200.38" transform="matrix(1 -5.789484e-03 5.789484e-03 1 -1.1858 2.2742)" class="st2" width="37.34" height="11.16"/>
		
			<rect x="376.4" y="195.87" transform="matrix(1 -5.789484e-03 5.789484e-03 1 -1.1629 2.2254)" class="st2" width="14.79" height="12.2"/>
		<polygon class="st2" points="384.94,199.3 376.38,199.34 376.33,192.92 382.48,192.9 		"/>
		
			<rect x="379.8" y="187.57" transform="matrix(1 -5.789484e-03 5.789484e-03 1 -1.121 2.2045)" class="st2" width="0.84" height="14.3"/>
		<path class="st2" d="M380.91,186.83c0,0.4-0.34,0.74-0.73,0.74s-0.76-0.34-0.76-0.74s0.34-0.74,0.73-0.74
			C380.55,186.09,380.91,186.41,380.91,186.83z"/>
	</g>
	<polygon class="st4" points="552.65,223.54 552.42,182.7 545.54,182.74 545.48,171.79 543.02,171.81 542.92,155.76 529.41,155.85 
		528.19,155.85 528.19,155.85 528.19,155.85 525.55,155.87 525.55,155.87 524.35,155.87 524.35,155.87 515.79,155.91 515.96,182.91 
		511.54,182.93 511.77,223.77 507.99,223.8 508.43,298.19 555.76,297.92 555.32,223.52 	"/>
	
		<rect x="298.11" y="303.48" transform="matrix(1 -5.789484e-03 5.789484e-03 1 -1.8059 2.6776)" class="st2" width="326.94" height="19.55"/>
	<polygon class="st3" points="605.49,215.35 605.37,194.88 597.92,194.92 597.88,187.12 593.89,187.15 593.85,180.62 592.47,180.62 
		592.47,180.62 592.47,180.62 592.09,180.62 590.7,180.62 590.75,187.17 586.76,187.19 586.8,194.98 579.42,195.02 579.54,215.5 
		577.99,215.52 578.22,252.67 566.77,252.76 567.02,295.12 578.45,295.05 589.91,294.99 607.42,294.88 606.96,215.35 	"/>
	
		<rect x="452.4" y="254.76" transform="matrix(1 -5.789484e-03 5.789484e-03 1 -1.6133 2.7164)" class="st2" width="31.95" height="50.51"/>
	
		<rect x="392.74" y="280.92" transform="matrix(1 -5.789484e-03 5.789484e-03 1 -1.6906 2.4377)" class="st2" width="54.94" height="24.62"/>
	
		<rect x="421.96" y="225.86" transform="matrix(1 -5.789484e-03 5.789484e-03 1 -1.4755 2.4822)" class="st2" width="12.06" height="60.47"/>
	
		<rect x="424.46" y="209.73" transform="matrix(1 -5.789484e-03 5.789484e-03 1 -1.3023 2.463)" class="st2" width="0.63" height="32.9"/>
	
		<rect x="422.72" y="222.11" transform="matrix(1 -5.789484e-03 5.789484e-03 1 -1.3023 2.4724)" class="st2" width="7.36" height="8.11"/>
	
		<rect x="445.48" y="263.88" transform="matrix(1 -5.789484e-03 5.789484e-03 1 -1.6402 2.6447)" class="st2" width="21" height="41.47"/>
	
		<rect x="489.43" y="219.69" transform="matrix(1 -5.789484e-03 5.789484e-03 1 -1.5104 2.952)" class="st2" width="39.4" height="85.35"/>
	
		<rect x="493.08" y="216.76" transform="matrix(1 -5.789484e-03 5.789484e-03 1 -1.2876 2.9501)" class="st2" width="31.66" height="14.22"/>
	
		<rect x="482.42" y="262.05" transform="matrix(1 -5.789484e-03 5.789484e-03 1 -1.6336 2.8515)" class="st2" width="18.57" height="43.1"/>
	
		<rect x="349.44" y="261.17" transform="matrix(1 -5.789484e-03 5.789484e-03 1 -1.6355 2.0895)" class="st2" width="21.29" height="44.74"/>
	<g>
		
			<rect x="356.3" y="248.91" transform="matrix(1 -5.789484e-03 5.789484e-03 1 -1.5994 2.1903)" class="st2" width="42.44" height="56.89"/>
		
			<rect x="353.66" y="246.74" transform="matrix(1 -5.789484e-03 5.789484e-03 1 -1.4285 2.1849)" class="st2" width="46.03" height="2.19"/>
		
			<rect x="358" y="240.86" transform="matrix(1 -5.789484e-03 5.789484e-03 1 -1.4217 2.1308)" class="st2" width="18.65" height="11.54"/>
		
			<rect x="382.73" y="240.76" transform="matrix(1 -5.789484e-03 5.789484e-03 1 -1.4077 2.229)" class="st2" width="3.13" height="7.01"/>
		
			<rect x="389.01" y="240.71" transform="matrix(1 -5.789484e-03 5.789484e-03 1 -1.4074 2.2662)" class="st2" width="3.44" height="7.01"/>
	</g>
	
		<rect x="337.93" y="288.68" transform="matrix(1 -5.789484e-03 5.789484e-03 1 -1.7155 2.0258)" class="st2" width="22.24" height="17.29"/>
	
		<rect x="329.51" y="281.43" transform="matrix(1 -5.789484e-03 5.789484e-03 1 -1.695 1.9431)" class="st2" width="10.53" height="24.62"/>
	
		<rect x="525.15" y="285.49" transform="matrix(1 -5.789484e-03 5.789484e-03 1 -1.7045 3.3201)" class="st2" width="94.9" height="21.15"/>
	<polygon class="st2" points="440.97,238.86 440.99,239.78 440.06,239.78 440.09,242.39 456.26,242.31 456.74,323.05 430.18,323.19 
		429.72,246.67 429.7,242.46 429.68,239.85 428.72,239.85 428.72,238.92 	"/>
	
		<rect x="486.6" y="275.22" transform="matrix(1 -5.789484e-03 5.789484e-03 1 -1.7228 2.888)" class="st0" width="22.76" height="47.6"/>
	<g>
		
			<rect x="387.39" y="264.87" transform="matrix(1 -5.789484e-03 5.789484e-03 1 -1.6962 2.3013)" class="st0" width="18.5" height="58.51"/>
		
			<rect x="402.24" y="276.98" transform="matrix(1 -5.789484e-03 5.789484e-03 1 -1.7308 2.3922)" class="st0" width="20.16" height="46.32"/>
		
			<rect x="393.87" y="262.54" transform="matrix(1 -5.789484e-03 5.789484e-03 1 -1.5335 2.3085)" class="st0" width="8.18" height="6.99"/>
		
			<rect x="403.5" y="276.21" transform="matrix(1 -5.789484e-03 5.789484e-03 1 -1.5971 2.4029)" class="st0" width="21.48" height="1.71"/>
	</g>
	
		<rect x="420.31" y="296.74" transform="matrix(1 -5.789484e-03 5.789484e-03 1 -1.7873 2.504)" class="st0" width="22.59" height="26.46"/>
	
		<rect x="347.2" y="275.66" transform="matrix(1 -5.789484e-03 5.789484e-03 1 -1.7288 2.0683)" class="st0" width="18.38" height="47.98"/>
	
		<rect x="328.34" y="299.65" transform="matrix(1 -5.789484e-03 5.789484e-03 1 -1.7988 1.9762)" class="st0" width="24.19" height="24.08"/>
	
		<rect x="304.68" y="295.88" transform="matrix(1 -5.789484e-03 5.789484e-03 1 -1.7888 1.8129)" class="st5" width="15.13" height="27.99"/>
	
		<rect x="316.93" y="314.98" transform="matrix(1 -5.789484e-03 5.789484e-03 1 -1.8433 1.9437)" class="st0" width="35.75" height="8.76"/>
	
		<rect x="365.68" y="305.8" transform="matrix(1 -5.789484e-03 5.789484e-03 1 -1.8153 2.2048)" class="st0" width="28.49" height="17.71"/>
	
		<rect x="449.26" y="315.34" transform="matrix(1 -5.789484e-03 5.789484e-03 1 -1.8398 2.7347)" class="st0" width="44.37" height="7.62"/>
	
		<rect x="527.92" y="314.88" transform="matrix(1 -5.789484e-03 5.789484e-03 1 -1.8358 3.1902)" class="st0" width="44.37" height="7.62"/>
	<polygon class="st0" points="491.75,292.82 474.89,292.93 467.9,319.17 491.9,319.02 	"/>
	
		<rect x="498.41" y="267.51" transform="matrix(1 -5.789484e-03 5.789484e-03 1 -1.5649 2.9148)" class="st0" width="8.54" height="8.49"/>
	
		<rect x="496.94" y="266.85" transform="matrix(1 -5.789484e-03 5.789484e-03 1 -1.5387 2.9142)" class="st0" width="11.31" height="0.76"/>
	
		<rect x="505.27" y="298.13" transform="matrix(1 -5.789484e-03 5.789484e-03 1 -1.7884 3.0102)" class="st0" width="27.57" height="24.56"/>
	
		<rect x="517.98" y="269.7" transform="matrix(1 -5.789484e-03 5.789484e-03 1 -1.6897 3.055)" class="st0" width="17.71" height="47.37"/>
	
		<rect x="587.9" y="306.47" transform="matrix(1 -5.789484e-03 5.789484e-03 1 -1.8097 3.5023)" class="st0" width="32.26" height="15.73"/>
	
		<rect x="302.66" y="278.23" transform="matrix(1 -5.789499e-03 5.789499e-03 1 -1.7376 1.8392)" class="st0" width="28.3" height="45.64"/>
	
		<rect x="284.68" y="318.35" transform="matrix(1 -5.789484e-03 5.789484e-03 1 -1.8544 1.7143)" class="st0" width="20.98" height="5.62"/>
	<path class="st6" d="M642.25,176.57"/>
	<path class="st6" d="M642.25,176.57"/>
	
		<linearGradient id="SVGID_1_" gradientUnits="userSpaceOnUse" x1="415.591" y1="576.8924" x2="513.9012" y2="576.8924" gradientTransform="matrix(0.981 -0.1941 -0.1941 -0.981 123.1059 766.8404)">
		<stop  offset="0" style="stop-color:#7D262B"/>
		<stop  offset="1" style="stop-color:#D74654"/>
	</linearGradient>
	<path class="st7" d="M490.14,48.53c-14.03-9.35-32.35-10.85-47.72-3.9c-11.73,5.29-21.04,15.21-25.63,27.17
		c-2.33,6.07-3.42,12.6-3.17,19.08c0.25,7.08,2.22,13.94,5.06,20.41c5.33,12.2,19.3,22.05,28.19,31.89
		c7.74,8.57,10.57,9.69,18.23,18.45c2.31,2.63,4.64,5.75,7.43,7.88c1.47,1.12,8.35,10.01,10.17,10.26c0.29,0.04-0.29,0.04,0,0
		c0.4-0.06-0.36,0.21,0,0c0.84-0.51,1.55-2.61,2.08-3.43c0.25-0.42-0.25,0.42,0,0c1.49-2.53,6.59-13.25,7.95-15.84
		c5.18-9.71,5.98-14.13,9.86-24.43c4.68-12.49,8.41-25.57,9.31-38.92c0.48-7.25,0.15-14.72-1.91-21.72
		c-2.16-7.37-6.08-14.2-11.39-19.78C496.05,52.95,493.2,50.57,490.14,48.53 M494,94.05c-2.35,14.81-15.31,26.22-30.4,26.62
		c-11.45,0.29-22.45-5.88-28.19-15.71c-5.87-10.07-5.58-22.85,0.71-32.67c6.71-10.49,19.38-16.18,31.76-14.15
		c14.83,2.42,26.16,15.36,26.52,30.33C494.42,90.32,494.29,92.19,494,94.05C493.87,94.81,494.56,90.49,494,94.05z"/>
	
		<linearGradient id="SVGID_2_" gradientUnits="userSpaceOnUse" x1="512.4409" y1="507.4832" x2="512.4409" y2="646.8978" gradientTransform="matrix(0.9369 -0.1854 -0.1959 -0.99 124.9986 772.6438)">
		<stop  offset="0" style="stop-color:#7D262B"/>
		<stop  offset="1" style="stop-color:#D74654"/>
	</linearGradient>
	<path class="st8" d="M511.03,81.11c2.45,12.34,0.84,25.38-1.91,37.41c-2.6,11.46-6.48,22.56-10.97,33.3
		c-3.08,7.37-6.48,14.6-10.24,21.61c-0.63,1.18-1.24,2.34-1.91,3.5c-0.46,0.8-1.05,1.64-1.8,2.15c-0.25,0.17-1.15,0.86-1.47,0.57
		c-0.17-0.15-0.19-0.95-0.23-1.16c-1.17-5.96-2.37-11.92-3.55-17.88c-1.68-8.38-3.34-16.79-5.01-25.17
		c-0.63-3.18-1.26-6.34-1.89-9.52c-0.19-0.99-0.4-2-0.59-2.99c-0.06-0.27-0.4-1.18-0.29-1.45c0.15-0.34,1.87-0.53,2.31-0.65
		c1.78-0.51,3.5-1.2,5.16-2.02c3.27-1.66,6.25-3.98,8.73-6.8c5.01-5.73,7.89-13.33,7.87-21.19c-0.02-8.09-3.06-16.05-8.39-22.01
		c-4.62-5.16-10.82-8.66-17.45-9.84c-1.8-0.32-3.65-0.46-5.48-0.44c-0.84,0.02-1.7,0.06-2.54,0.15c-0.46,0.04-0.92,0.11-1.38,0.19
		c-0.13,0.02-1.11,0.29-1.22,0.21c-0.1-0.08-0.15-0.7-0.17-0.82c-0.13-0.67-0.27-1.35-0.4-2.02c-0.8-3.96-1.57-7.92-2.37-11.88
		c-0.17-0.86-0.34-1.71-0.5-2.57c10.28-2.02,21.1-0.36,30.5,4.74c8.08,4.36,14.94,11.12,19.55,19.31
		C508.05,70.56,509.96,75.76,511.03,81.11z"/>
	<g>
		
			<linearGradient id="SVGID_3_" gradientUnits="userSpaceOnUse" x1="429.5291" y1="685.1599" x2="496.0273" y2="685.1599" gradientTransform="matrix(1 0 0 -1 0 774.3311)">
			<stop  offset="0" style="stop-color:#D74654"/>
			<stop  offset="1" style="stop-color:#7D262B"/>
		</linearGradient>
		<path class="st9" d="M430.16,95.58c2.69,13.5,13.91,24.18,27.59,26.27c13.78,2.11,27.71-4.87,34.34-17.04
			c6.63-12.2,4.76-27.66-4.64-37.89c-9.4-10.26-24.67-13.65-37.55-8.26c-12.63,5.27-20.89,18.2-20.35,31.81
			C429.62,92.19,429.83,93.9,430.16,95.58z M468.68,64.03c11.87,2.74,20.45,13.73,20.1,25.87c-0.27,9.33-5.85,18.03-14.2,22.26
			c-8.56,4.34-19.05,3.52-26.85-2c-8.43-5.98-12.54-16.72-10.2-26.79c2.81-12.03,14.18-20.6,26.6-19.97
			C465.66,63.46,467.17,63.69,468.68,64.03C469.5,64.22,468.07,63.88,468.68,64.03z"/>
	</g>
	
		<linearGradient id="SVGID_4_" gradientUnits="userSpaceOnUse" x1="452.5136" y1="598.8423" x2="476.9758" y2="598.8423" gradientTransform="matrix(0.981 -0.1941 -0.1941 -0.981 123.1059 766.8404)">
		<stop  offset="0" style="stop-color:#7D262B"/>
		<stop  offset="1" style="stop-color:#D74654"/>
	</linearGradient>
	<path class="st10" d="M460.39,77.24c-5.01,0.99-8.96,5.12-9.71,10.13c-0.78,5.03,1.83,10.13,6.31,12.53
		c4.51,2.42,10.22,1.73,14.01-1.71c3.78-3.41,5.03-8.95,3.1-13.65C471.89,79.24,466.03,76.12,460.39,77.24z"/>
	
		<rect x="585.34" y="206.84" transform="matrix(1 -5.789507e-03 5.789507e-03 1 -1.5071 3.489)" class="st2" width="33.08" height="110.42"/>
	<g>
		<polygon class="st0" points="590.52,322.27 551.83,322.5 551.31,233.97 589.95,224.34 		"/>
		
			<rect x="549.87" y="232.41" transform="matrix(1 -5.789484e-03 5.789484e-03 1 -1.5971 3.1979)" class="st0" width="3.4" height="90.09"/>
		
			<rect x="559.54" y="229.82" transform="matrix(1 -5.789484e-03 5.789484e-03 1 -1.5893 3.2539)" class="st0" width="3.4" height="92.62"/>
		
			<rect x="569.21" y="227.13" transform="matrix(1 -5.789484e-03 5.789484e-03 1 -1.5811 3.3099)" class="st0" width="3.4" height="95.25"/>
		
			<rect x="578.86" y="224.94" transform="matrix(1 -5.789484e-03 5.789484e-03 1 -1.5745 3.3657)" class="st0" width="3.4" height="97.4"/>
		
			<rect x="588.53" y="222.6" transform="matrix(1 -5.789484e-03 5.789484e-03 1 -1.5674 3.4217)" class="st0" width="3.4" height="99.69"/>
		
			<rect x="553.96" y="239.95" transform="matrix(1 -5.789484e-03 5.789484e-03 1 -1.3997 3.2243)" class="st11" width="4.51" height="6.85"/>
		
			<rect x="563.63" y="239.89" transform="matrix(1 -5.789484e-03 5.789484e-03 1 -1.3992 3.2802)" class="st11" width="4.51" height="6.85"/>
		
			<rect x="573.3" y="239.85" transform="matrix(1 -5.789484e-03 5.789484e-03 1 -1.3988 3.3362)" class="st0" width="4.51" height="6.85"/>
		
			<rect x="582.97" y="239.79" transform="matrix(1 -5.789484e-03 5.789484e-03 1 -1.3982 3.3922)" class="st11" width="4.51" height="6.85"/>
		
			<rect x="554.02" y="251.88" transform="matrix(1 -5.789484e-03 5.789484e-03 1 -1.4687 3.2248)" class="st0" width="4.51" height="6.85"/>
		
			<rect x="563.69" y="251.81" transform="matrix(1 -5.789484e-03 5.789484e-03 1 -1.4682 3.2808)" class="st0" width="4.51" height="6.85"/>
		
			<rect x="573.36" y="251.75" transform="matrix(1 -5.789484e-03 5.789484e-03 1 -1.4677 3.3368)" class="st11" width="4.51" height="6.85"/>
		
			<rect x="583.03" y="251.71" transform="matrix(1 -5.789484e-03 5.789484e-03 1 -1.4673 3.3928)" class="st11" width="4.51" height="6.85"/>
		
			<rect x="554.08" y="263.78" transform="matrix(1 -5.789484e-03 5.789484e-03 1 -1.5376 3.2254)" class="st11" width="4.51" height="6.85"/>
		
			<rect x="563.75" y="263.71" transform="matrix(1 -5.789484e-03 5.789484e-03 1 -1.5371 3.2814)" class="st11" width="4.51" height="6.85"/>
		
			<rect x="573.42" y="263.67" transform="matrix(1 -5.789484e-03 5.789484e-03 1 -1.5367 3.3374)" class="st11" width="4.51" height="6.85"/>
		
			<rect x="583.1" y="263.61" transform="matrix(1 -5.789484e-03 5.789484e-03 1 -1.5362 3.3934)" class="st0" width="4.51" height="6.85"/>
		
			<rect x="554.17" y="275.7" transform="matrix(1 -5.789484e-03 5.789484e-03 1 -1.6067 3.2261)" class="st11" width="4.51" height="6.85"/>
		
			<rect x="563.84" y="275.64" transform="matrix(1 -5.789484e-03 5.789484e-03 1 -1.6061 3.2821)" class="st0" width="4.51" height="6.85"/>
		
			<rect x="573.51" y="275.57" transform="matrix(1 -5.789484e-03 5.789484e-03 1 -1.6056 3.3381)" class="st11" width="4.51" height="6.85"/>
		
			<rect x="583.18" y="275.53" transform="matrix(1 -5.789484e-03 5.789484e-03 1 -1.6052 3.394)" class="st11" width="4.51" height="6.85"/>
		
			<rect x="554.23" y="287.6" transform="matrix(1 -5.789484e-03 5.789484e-03 1 -1.6756 3.2266)" class="st11" width="4.51" height="6.85"/>
		
			<rect x="563.9" y="287.54" transform="matrix(1 -5.789484e-03 5.789484e-03 1 -1.675 3.2826)" class="st11" width="4.51" height="6.85"/>
		
			<rect x="573.57" y="287.5" transform="matrix(1 -5.789484e-03 5.789484e-03 1 -1.6746 3.3386)" class="st0" width="4.51" height="6.85"/>
		
			<rect x="583.24" y="287.43" transform="matrix(1 -5.789484e-03 5.789484e-03 1 -1.6741 3.3946)" class="st11" width="4.51" height="6.85"/>
		
			<rect x="554.29" y="299.52" transform="matrix(1 -5.789484e-03 5.789484e-03 1 -1.7446 3.2272)" class="st0" width="4.51" height="6.85"/>
		
			<rect x="563.96" y="299.46" transform="matrix(1 -5.789484e-03 5.789484e-03 1 -1.744 3.2832)" class="st0" width="4.51" height="6.85"/>
		
			<rect x="573.63" y="299.4" transform="matrix(1 -5.789484e-03 5.789484e-03 1 -1.7435 3.3392)" class="st11" width="4.51" height="6.85"/>
		
			<rect x="583.31" y="299.35" transform="matrix(1 -5.789484e-03 5.789484e-03 1 -1.7431 3.3952)" class="st11" width="4.51" height="6.85"/>
		
			<rect x="554.38" y="311.42" transform="matrix(1 -5.789484e-03 5.789484e-03 1 -1.8135 3.2279)" class="st11" width="4.51" height="6.85"/>
		
			<rect x="564.05" y="311.36" transform="matrix(1 -5.789484e-03 5.789484e-03 1 -1.8129 3.2839)" class="st0" width="4.51" height="6.85"/>
		
			<rect x="573.72" y="311.32" transform="matrix(1 -5.789484e-03 5.789484e-03 1 -1.8125 3.3399)" class="st11" width="4.51" height="6.85"/>
		
			<rect x="583.39" y="311.26" transform="matrix(1 -5.789484e-03 5.789484e-03 1 -1.812 3.3959)" class="st0" width="4.51" height="6.85"/>
	</g>
	
		<rect x="596.69" y="279.49" transform="matrix(1 -5.789484e-03 5.789484e-03 1 -1.7314 3.5415)" class="st0" width="28.3" height="42.67"/>
</g>
<g>
	<path d="M90.72,396.71c0-11.82,3.29-21.02,9.88-27.61c6.58-6.58,15.75-9.88,27.51-9.88c12.05,0,21.33,3.23,27.85,9.7
		c6.52,6.47,9.78,15.53,9.78,27.19c0,8.46-1.42,15.4-4.27,20.82c-2.85,5.42-6.96,9.63-12.35,12.64c-5.38,3.01-12.09,4.52-20.12,4.52
		c-8.17,0-14.92-1.3-20.27-3.9c-5.35-2.6-9.69-6.72-13.01-12.35C92.38,412.22,90.72,405.18,90.72,396.71z M113.09,396.81
		c0,7.31,1.36,12.56,4.07,15.75c2.71,3.19,6.41,4.79,11.09,4.79c4.81,0,8.53-1.56,11.16-4.69c2.63-3.13,3.95-8.74,3.95-16.84
		c0-6.82-1.37-11.79-4.12-14.94c-2.75-3.14-6.48-4.72-11.19-4.72c-4.51,0-8.13,1.6-10.86,4.79
		C114.46,384.15,113.09,389.44,113.09,396.81z"/>
	<path d="M177.93,360.47h20.89l27.26,40.05v-40.05h21.09v72.4h-21.09l-27.11-39.75v39.75h-21.04V360.47z"/>
	<path d="M295.52,360.47h29.42l11.35,44.05l11.26-44.05h29.4v72.4h-18.32v-55.21l-14.12,55.21h-16.58l-14.09-55.21v55.21h-18.32
		V360.47z"/>
	<path d="M383.92,360.47h24.85l14.59,24.42l14.62-24.42h24.72l-28.15,42.08v30.32h-22.42v-30.32L383.92,360.47z"/>
	<path d="M503.67,360.47h41.88c6.98,0,12.34,1.73,16.08,5.19c3.74,3.46,5.6,7.74,5.6,12.84c0,4.28-1.33,7.95-4,11.01
		c-1.78,2.04-4.38,3.65-7.8,4.84c5.2,1.25,9.03,3.4,11.48,6.44c2.45,3.05,3.68,6.87,3.68,11.48c0,3.75-0.87,7.13-2.62,10.12
		c-1.75,3-4.13,5.37-7.16,7.11c-1.88,1.09-4.71,1.88-8.49,2.37c-5.04,0.66-8.38,0.99-10.03,0.99h-38.62V360.47z M526.24,388.86h9.73
		c3.49,0,5.92-0.6,7.28-1.8c1.37-1.2,2.05-2.94,2.05-5.21c0-2.11-0.68-3.75-2.05-4.94c-1.37-1.19-3.75-1.78-7.14-1.78h-9.88V388.86z
		 M526.24,417.31h11.41c3.85,0,6.57-0.68,8.15-2.05c1.58-1.37,2.37-3.2,2.37-5.51c0-2.14-0.78-3.86-2.35-5.16
		c-1.56-1.3-4.31-1.95-8.22-1.95h-11.36V417.31z"/>
	<path d="M582.29,360.47h22.37v54.57h34.91v17.83h-57.29V360.47z"/>
	<path d="M645.21,396.71c0-11.82,3.29-21.02,9.88-27.61c6.58-6.58,15.75-9.88,27.51-9.88c12.05,0,21.33,3.23,27.85,9.7
		c6.52,6.47,9.78,15.53,9.78,27.19c0,8.46-1.42,15.4-4.27,20.82c-2.85,5.42-6.96,9.63-12.35,12.64c-5.38,3.01-12.09,4.52-20.12,4.52
		c-8.17,0-14.92-1.3-20.27-3.9c-5.35-2.6-9.69-6.72-13.01-12.35C646.87,412.22,645.21,405.18,645.21,396.71z M667.58,396.81
		c0,7.31,1.36,12.56,4.07,15.75c2.72,3.19,6.41,4.79,11.09,4.79c4.81,0,8.53-1.56,11.16-4.69c2.63-3.13,3.95-8.74,3.95-16.84
		c0-6.82-1.37-11.79-4.12-14.94c-2.75-3.14-6.48-4.72-11.18-4.72c-4.51,0-8.13,1.6-10.86,4.79
		C668.95,384.15,667.58,389.44,667.58,396.81z"/>
	<path d="M780.47,403.23l19.61,5.93c-1.32,5.5-3.39,10.09-6.22,13.78c-2.83,3.69-6.35,6.47-10.54,8.35
		c-4.2,1.88-9.54,2.81-16.02,2.81c-7.87,0-14.3-1.14-19.28-3.43c-4.99-2.29-9.29-6.31-12.91-12.07c-3.62-5.76-5.43-13.13-5.43-22.11
		c0-11.98,3.18-21.18,9.56-27.61c6.37-6.43,15.38-9.65,27.04-9.65c9.12,0,16.29,1.84,21.51,5.53c5.22,3.69,9.09,9.35,11.63,16.99
		l-19.75,4.4c-0.69-2.21-1.42-3.82-2.17-4.84c-1.25-1.71-2.78-3.03-4.59-3.95c-1.81-0.92-3.84-1.38-6.07-1.38
		c-5.07,0-8.96,2.04-11.65,6.12c-2.04,3.03-3.06,7.78-3.06,14.25c0,8.02,1.22,13.52,3.65,16.5c2.44,2.98,5.86,4.46,10.27,4.46
		c4.28,0,7.51-1.2,9.7-3.61C777.9,411.3,779.49,407.81,780.47,403.23z"/>
	<path d="M811.04,360.47h22.37v27.36l23.43-27.36h29.75l-26.42,27.33l27.6,45.07h-27.55l-15.26-29.77l-11.56,12.11v17.67h-22.37
		V360.47z"/>
</g>
</svg>
